<?xml version="1.0" encoding="UTF-8" standalone="no"?>
<!-- Generator: Avocode 1.1.1 - http://avocode.com -->
<svg xmlns="http://www.w3.org/2000/svg" xmlns:xlink="http://www.w3.org/1999/xlink" width="20" height="17" viewBox="0 0 20 17">
    <desc>Created with Avocode</desc>
    <g fill="#fdbb30">
        <path d="M 19.15 11.43 L 19.15 11.43 C 19.62 11.71, 19.9 12.35, 19.77 12.86 L 19.22 15.91 C 19.09 16.42, 18.53 16.83, 17.98 16.83 L 1.83 16.83 C 1.27 16.83, 0.71 16.42, 0.59 15.91 L 0.03 12.86 C -0.1 12.35, 0.18 11.71, 0.65 11.43 L 3.81 9.31 L 5.75 9.31 L 2.38 11.89 L 5.89 11.89 C 5.99 11.89, 6.08 11.94, 6.13 12.02 L 6.94 14.23 L 12.86 14.23 L 13.67 12.02 C 13.72 11.94, 13.81 11.89, 13.91 11.89 L 17.42 11.89 L 14.05 9.31 L 16 9.31 L 19.15 11.43 Z" />
        <path d="M 15.05 5.07 L 15.05 5.07 L 9.9 9.9 L 4.75 5.07 L 8.02 5.07 L 8.02 0 L 11.78 0 L 11.78 5.07 L 15.05 5.07 Z" />
    </g>
</svg>